<svg id="Layer_1" data-name="Layer 1" xmlns="http://www.w3.org/2000/svg" viewBox="0 0 220 220">
    <defs>
        <style>.cls-1{fill:#231f20;}.cls-2{fill:none;}</style>
    </defs>
    <title>Artboard 3</title>
    <g id="Layer_1-2" data-name="Layer 1">
        <path class="cls-1"
            d="M26.87,149.49h84.91v13.9H26.87ZM210,124.7a4,4,0,0,0-3.92-4h-.14A3.91,3.91,0,0,0,203.1,116a4.24,4.24,0,0,0-3.54-7.32s0-.07,0-.11a4.24,4.24,0,0,0-8.11-.88,4.21,4.21,0,0,0-1.88-.1l-.14,0a4.62,4.62,0,0,0-.57,0,4.57,4.57,0,0,0-3,1.12,4.59,4.59,0,0,0-1.08-.36l0-.11a4.59,4.59,0,0,0-7.87-4,4.59,4.59,0,0,0-7.05,5.14,4.57,4.57,0,0,0-.42.24l-.35,0a4.54,4.54,0,0,0-1-1.77,4.59,4.59,0,0,0-6.49-.3,4.54,4.54,0,0,0-1.23,1.91,4.53,4.53,0,0,0-5.36,3.86,4.59,4.59,0,0,0-5.09,7.5c-.07.1-.13.2-.18.3a4.59,4.59,0,0,0-8.14,2.79h-.11a4.59,4.59,0,0,0-2.55,8.43,4.59,4.59,0,0,0,6.27,6.07,4.63,4.63,0,0,0,1.07,1l5.69,39.46h6.62l-2.92-30a5,5,0,0,0,6.41-3.92l.12,0a5,5,0,0,0,1.68,0l1.63,33.9h5.39l-.3-31.1a5,5,0,0,0,8.35,1.35l-1.16,29.75h5.4l2.59-33.42a5,5,0,0,0,.62-.74,5.42,5.42,0,0,0,7.48,4.72l-3.73,29.43h6.66l6.4-36.78a5.15,5.15,0,0,0,.39-1.89,4.58,4.58,0,0,0,3.58-7.6,3.93,3.93,0,0,0,.28-.32,4.58,4.58,0,0,0,1.06-4.6A3.94,3.94,0,0,0,210,124.7ZM26.75,106v40.65h85V106h1.46V56.69A33.44,33.44,0,0,0,79.8,23.25H58.89A33.44,33.44,0,0,0,25.45,56.69V106Zm101.77,2.83h-13.9v37.81h0v19.57h0v12.54h13.9Zm-118.5,0v69.92h13.9V108.85Zm142.85,76.48,1.59,11,39.22.38,2-11.41h-42.8Zm-71,1h-4.6V166.23H60.57v20.07H55.13a10.45,10.45,0,0,0-10.45,10.45H92.34A10.45,10.45,0,0,0,81.89,186.29Z" />
        <path class="cls-2" d="M0,0H220V220H0Z" />
    </g>
</svg>